,
.   http://www.scenetime.com/signup.php  ---&gt;  Hottest scene tracker on the net !!!  

    Join Now   http://www.scenetime.com/signup.php

    seed back for speed


 



...................................NFO:.................................................UUUUUUUU     UUUUUUUU           SSSSSSSSSSSSSSS         MMMMMMMM               MMMMMMMM     
U::::::U     U::::::U         SS:::::::::::::::S        M:::::::M             M:::::::M     
U::::::U     U::::::U        S:::::SSSSSS::::::S        M::::::::M           M::::::::M     
UU:::::U     U:::::UU        S:::::S     SSSSSSS        M:::::::::M         M:::::::::M     
 U:::::U     U:::::U         S:::::S                    M::::::::::M       M::::::::::M     
 U:::::D     D:::::U         S:::::S                    M:::::::::::M     M:::::::::::M     
 U:::::D     D:::::U          S::::SSSS                 M:::::::M::::M   M::::M:::::::M     
 U:::::D     D:::::U           SS::::::SSSSS            M::::::M M::::M M::::M M::::::M     
 U:::::D     D:::::U             SSS::::::::SS          M::::::M  M::::M::::M  M::::::M     
 U:::::D     D:::::U                SSSSSS::::S         M::::::M   M:::::::M   M::::::M     
 U:::::D     D:::::U                     S:::::S        M::::::M    M:::::M    M::::::M     
 U::::::U   U::::::U                     S:::::S        M::::::M     MMMMM     M::::::M     
 U:::::::UUU:::::::U         SSSSSSS     S:::::S        M::::::M               M::::::M     
  UU:::::::::::::UU   ...... S::::::SSSSSS:::::S ...... M::::::M               M::::::M     
    UU:::::::::UU     .::::. S:::::::::::::::SS  .::::. M::::::M               M::::::M     
      UUUUUUUUU       ......  SSSSSSSSSSSSSSS    ...... MMMMMMMM               MMMMMMMM   



                       The Rum Diary 2011 CAM READNFO XViD - U.S.M


SOURCES:
The Rum Diary RELIZLAB M2V
ILLUMINATI

IMDB:
 
http://www.imdb.com/title/tt0376136/


Video
ID                               : 0
Format                           : MPEG-4 Visual
Format profile                   : Advanced Simple@L5
Format settings, BVOP            : 2
Format settings, QPel            : No
Format settings, GMC             : No warppoints
Format settings, Matrix          : Default (MPEG)
Muxing mode                      : Packed bitstream
Codec ID                         : XVID
Codec ID/Hint                    : XviD
Duration                         : 1h 50mn
Bit rate                         : 857 Kbps
Width                            : 512 pixels
Height                           : 288 pixels
Display aspect ratio             : 16:9
Frame rate                       : 25.000 fps
Color space                      : YUV
Chroma subsampling               : 4:2:0
Bit depth                        : 8 bits
Scan type                        : Progressive
Compression mode                 : Lossy
Bits/(Pixel*Frame)               : 0.232
Stream size                      : 677 MiB (86%)
Writing library                  : XviD 64

Audio
ID                               : 1
Format                           : MPEG Audio
Format version                   : Version 1
Format profile                   : Layer 3
Mode                             : Joint stereo
Codec ID                         : 55
Codec ID/Hint                    : MP3
Duration                         : 1h 50mn
Bit rate mode                    : Constant
Bit rate                         : 128 Kbps
Channel(s)                       : 2 channels
Sampling rate                    : 44.1 KHz
Compression mode                 : Lossy
Stream size                      : 101 MiB (13%)
Alignment                        : Split accross interleaves
Interleave, duration             : 40 ms (1.00 video frame)
Interleave, preload duration     : 500 ms


WORKDONE:

Ok was lucky to get the source files for this and let me tell you ....the file is a m2v 352 x 288 
res video.The ones you see elsewhere are only upscaled from this :P
Right video was interlaced,lacked colour,dark,had wrong AR,lots of video noise .....and many more faults :lol:
Anyway...fixed everything we could,the best we could....we ended up upscaling this release to the max
we feel we could before you started to make it look even worse.
Audio we took and remastered and cleaned it up.....sounds good for cam.


SCREENIES:

[IMG]http://i.imgur.com/u9DZQ.png[/IMG]
[IMG]http://i.imgur.com/qUwk5.png[/IMG]
[IMG]http://i.imgur.com/81Th9.png[/IMG]
[IMG]http://i.imgur.com/SlXLP.png[/IMG]
[IMG]http://i.imgur.com/doFo8.png[/IMG]